PathFileType	4	(X/Y/Z)	C:\Users\WrightLab\Desktop\Jo\P1.2Trial7.trc
DataRate	CameraRate	NumFrames	NumMarkers	Units	OrigDataRate	OrigDataStartFrame	OrigNumFrames
100.00	100.00	       13	19	mm	100.00	337	       539
Frame#	Time	Headset_Front			Headset_Back			Headset_Left			Headset_Right			Left_Shoulder			Right_Shoulder			Sternum			C7			Left Elbow			Right Elbow			Left Wrist			Right Wrist			Left ASIS			Right ASIS			S2			Left Knee			Right Knee			Left Ankle			Right Ankle			
		X1	Y1	Z1	X2	Y2	Z2	X3	Y3	Z3	X4	Y4	Z4	X5	Y5	Z5	X6	Y6	Z6	X7	Y7	Z7	X8	Y8	Z8	X9	Y9	Z9	X10	Y10	Z10	X11	Y11	Z11	X12	Y12	Z12	X13	Y13	Z13	X14	Y14	Z14	X15	Y15	Z15	X16	Y16	Z16	X17	Y17	Z17	X18	Y18	Z18	X19	Y19	Z19	

337	3.360	-22.18699	1415.28894	1096.98608	-70.31876	1534.27698	820.47046	60.52166	1486.06274	916.50165	-144.38553	1440.44531	1011.28546	164.43013	1268.01782	794.09290	-224.41028	1268.68262	969.04907	24.04782	1212.74561	990.75433	-77.14857	1319.68811	773.00604	194.43147	977.37366	749.11377	-296.54080	1012.85431	962.11261	286.60089	772.43915	833.71887	-281.36792	758.28442	1047.85547	145.36563	906.78955	920.42975	-101.24600	886.14575	1054.53064	-106.06757	923.32813	723.56396	247.42030	504.15225	960.74573	-41.57674	467.71567	1034.30164	110.27779	263.82169	696.98865	10.83441	119.02034	984.01605	
338	3.370	-20.44462	1415.89233	1106.69055	-66.20557	1535.32751	829.65002	63.48114	1487.66785	927.14178	-141.86389	1440.98633	1019.78528	168.67236	1268.40283	804.57074	-220.89198	1269.61548	976.81000	26.50229	1213.38611	999.78815	-73.48880	1321.29028	780.91174	198.46785	978.64008	760.26855	-293.80206	1014.08081	972.52246	289.37076	773.49445	843.34106	-274.61893	759.96838	1061.83716	149.12547	907.53967	930.36304	-100.35300	887.40314	1064.10083	-100.92653	924.03644	732.29315	252.54674	510.75259	984.63214	-46.32650	465.37384	1038.70898	125.40984	264.60107	720.93738	7.70608	119.46381	984.21509	
339	3.380	-18.89499	1416.93872	1116.46240	-61.64832	1536.65405	839.27960	66.43158	1488.70996	938.67542	-139.96013	1441.62427	1028.83813	172.37346	1269.42126	816.04974	-217.98399	1270.30127	984.82538	28.93310	1214.17261	1010.18744	-69.58217	1321.81360	790.60010	202.96782	979.91364	769.17072	-291.13602	1015.20276	982.85480	292.65665	774.43573	852.99908	-266.78522	761.65955	1076.01257	152.08568	907.97607	941.51990	-99.32174	889.09180	1073.86206	-96.90542	925.03046	741.76898	255.21266	517.67804	1007.69116	-50.80852	462.71112	1041.90808	139.57085	262.99854	746.00226	6.84999	117.13830	982.87158	
340	3.390	-17.80829	1417.65320	1126.08777				69.28921	1490.37561	949.80829	-137.18481	1441.96021	1037.06409	175.69984	1270.33264	827.02759	-216.53502	1271.07056	993.21539	30.84001	1215.54370	1020.35278	-65.05900	1321.64453	801.24768	208.33366	980.42676	780.88007	-288.93057	1016.05261	993.31445	296.09814	774.95184	863.40002	-260.31558	763.85547	1090.14600	154.41165	909.15601	953.37463	-97.93475	890.05249	1083.04626	-92.01274	925.67188	751.33136	257.82968	524.29999	1030.04858	-55.37856	459.77499	1045.34302	154.60886	260.84625	771.77856	5.62280	114.27461	980.81934	
341	3.400	-16.37352	1418.62756	1136.13269				72.80714	1491.40137	960.24976	-135.67134	1443.12354	1046.03821	179.36029	1271.32520	838.50409	-214.34384	1271.82471	1001.25079	32.77636	1216.07751	1029.72864	-61.45409	1321.71594	810.65045	212.99438	981.59253	790.78937	-287.03342	1016.93213	1003.28986	299.73022	775.60968	874.47656	-253.50368	765.29114	1103.67139	156.55446	910.02130	964.77856	-96.96225	890.67133	1091.78442	-87.09210	925.86700	759.79529	260.25757	530.93726	1050.92590	-59.55997	455.90887	1048.71057	169.91382	257.84937	798.48907	1.93266	115.77026	980.56647	
342	3.410	-15.05986	1419.50330	1145.98071				75.80237	1491.87549	970.26398	-132.76683	1443.77356	1054.61572	182.52567	1271.59778	849.56451	-212.63730	1272.26184	1009.56140	34.50452	1216.98547	1041.42798	-58.23085	1322.67566	819.16882	218.48622	982.15857	801.83966	-284.16339	1016.90448	1012.93927	303.32544	776.01935	885.39282	-246.73361	767.10846	1117.52393	159.07855	910.47925	976.74524	-96.30421	891.40411	1100.75549	-81.84676	925.91956	769.49866	260.93256	536.70709	1069.34546	-64.09979	452.93204	1050.14917	185.51448	254.11292	825.63464	0.83548	113.86071	979.01239	
343	3.420	-14.09026	1420.11035	1155.43665				79.07983	1492.30530	980.35187	-130.88474	1444.95776	1063.78589	185.96977	1272.19055	861.33667	-208.77495	1271.01221	1016.03796	35.87563	1217.65698	1051.53125	-54.63331	1322.69348	828.68445	223.77824	982.65009	813.39783	-281.87640	1017.01117	1022.77063	307.61969	777.13788	896.51813	-239.76936	768.43256	1130.71960	161.46674	911.86395	989.28516	-95.23508	892.12500	1109.36475	-76.40131	925.85004	778.73938	261.94534	541.91827	1089.27209	-68.48621	449.39990	1052.70227	200.59628	249.43811	852.53973	0.72056	112.91982	978.79657	
344	3.430	-12.81222	1421.04504	1165.80042				81.74243	1492.22559	990.01813	-128.90123	1446.07251	1072.65881	189.36525	1272.81860	872.78723	-208.52876	1272.43542	1025.80005	37.08150	1218.12061	1062.25281	-50.67541	1322.36646	839.50037	228.76712	983.48987	824.64954	-280.19998	1017.37085	1032.76709	312.14142	777.60895	907.91760	-233.87872	770.35107	1143.59937	163.76694	912.38177	1002.37225	-93.88020	891.49951	1117.24536	-70.96964	925.32593	787.72638	261.69730	545.68378	1106.30017	-72.20396	445.87097	1055.01416	214.14182	242.38850	881.44855	0.97771	112.24770	978.86353	
345	3.440	-11.27487	1421.28540	1175.14246				84.68698	1492.33008	1000.48151	-126.71524	1446.49060	1081.53601	192.56293	1273.37134	885.03137	-206.07083	1272.29614	1033.96033	38.63563	1217.85156	1073.12732	-47.06555	1322.75647	847.89746	233.76669	984.13599	836.95142	-279.38437	1017.21442	1041.67212	315.58920	778.45923	918.67377	-227.75990	772.27863	1156.80237	165.93007	912.69421	1015.65356	-93.20306	891.34869	1124.43640	-64.72263	924.47510	796.61945	260.99304	549.42303	1124.12219	-76.56626	442.57910	1057.83789	227.01599	233.98297	912.25623	2.12033	111.62719	979.54303	
346	3.450	-10.15360	1421.91699	1184.96130				87.60749	1492.21899	1010.07562	-124.59018	1446.61023	1090.30249	195.83258	1273.43408	897.40314	-205.08304	1272.18994	1042.20801	39.58430	1218.06885	1083.59119	-43.50776	1322.69189	858.04193	238.12379	984.53967	848.38623	-274.89206	1016.95490	1051.96912	320.91711	779.15173	930.61102	-221.88474	773.23755	1169.38416	168.06294	912.67352	1028.75378	-91.76825	891.29614	1132.22302	-58.12352	924.23810	805.69067	260.68649	552.61804	1140.38159	-80.61171	439.54980	1060.53491	240.11145	226.26665	942.74957	4.16028	110.43689	973.58319	
347	3.460	-9.02814	1422.39648	1194.97485				90.62517	1491.68530	1020.38885	-122.69653	1447.00439	1099.38147	199.35341	1273.04553	909.87726	-202.87057	1272.17664	1050.12036	40.56041	1217.65796	1094.19409	-39.87314	1322.26782	867.64923	242.86037	984.54474	859.72900	-273.62817	1016.48346	1060.99646	324.82913	779.24542	941.42340	-216.12727	774.76257	1181.82593	169.59760	911.72034	1041.64648	-90.98991	891.75299	1140.98743	-51.73339	923.76898	815.53345	258.74887	553.98553	1156.50562	-83.16568	437.19110	1063.68201	252.94547	218.61008	974.97626	3.49333	111.40353	980.10791	
348	3.470	-8.03047	1422.42468	1204.66650				93.06762	1491.73462	1030.23560	-120.98757	1447.19165	1108.24353	202.28380	1272.80054	922.38568	-201.08217	1271.51746	1058.12585	41.11588	1217.16333	1105.01270	-36.36237	1321.74963	877.29614	246.07570	984.80927	871.06580	-269.89240	1016.14417	1071.37170	329.90109	779.08014	953.05548	-210.92743	776.39734	1194.01111	171.90810	911.28375	1055.19055	-90.05093	892.23016	1149.51270	-44.79068	923.26398	824.82343	256.59485	554.77509	1172.86194	-85.16544	435.62311	1067.41528	265.67484	211.84192	1007.11963	3.74856	111.88779	980.45782	
349	3.480	-6.58303	1422.13379	1214.66956	-24.89637	1536.92664	933.12756	93.71222	1489.28552	1042.17236	-118.94785	1447.21619	1117.67310	205.30556	1272.66589	934.41394	-198.96658	1270.38013	1066.36011	42.15472	1216.57507	1115.91504	-32.81401	1321.10889	887.21655	250.84186	984.43866	882.93091	-268.71283	1015.41815	1080.81824	334.51935	778.97552	963.93964	-205.61264	776.82434	1205.97144	173.73807	910.88110	1068.87024	-91.12395	889.16052	1154.73181	-37.35442	922.29462	834.56952	253.65849	555.38184	1187.75159	-84.80791	434.78632	1070.85620	279.14154	206.18704	1041.28113	5.12056	110.28628	973.61139	
